<svg xmlns="http://www.w3.org/2000/svg" viewBox="0 0 218.2 58.56"><defs><style>.cls-1{fill:#1b2135}.cls-2{fill:#1c4ddc}</style></defs><g id="Warstwa_2" data-name="Warstwa 2"><g id="Warstwa_1-2" data-name="Warstwa 1"><path class="cls-1" d="M68.17 34.68a1.45 1.45 0 00-.93.34 8.82 8.82 0 01-5.63 2.09c-4.46 0-6.84-2.82-6.84-8.9s2.38-8.83 6.84-8.83a6.18 6.18 0 015.25 2.29 1.49 1.49 0 001.17.58 1.38 1.38 0 001.41-1.41 1.55 1.55 0 00-.34-.93 9.22 9.22 0 00-7.49-3.34c-6.26 0-10 3.69-10 11.64s3.72 11.71 10 11.71A11.08 11.08 0 0069 37.29a1.51 1.51 0 00.64-1.22 1.41 1.41 0 00-1.47-1.39zM90.69 23.86l-.07.06a1.49 1.49 0 00-.62 1.43 16.65 16.65 0 01.23 2.86c0 6.23-2.58 8.9-7 8.9s-7-2.67-7-8.9 2.58-8.83 7-8.83A6.6 6.6 0 0188 21.05a1.54 1.54 0 002 .14 1.52 1.52 0 00.13-2.32 10 10 0 00-6.92-2.3C77 16.57 73 20.26 73 28.21s4 11.71 10.23 11.71 10.19-3.74 10.19-11.71a19.58 19.58 0 00-.28-3.38 1.54 1.54 0 00-2.45-.97zM114.68 11.52a1.6 1.6 0 00-1.49 1.62v17.21c0 4.62-2.68 6.76-6.41 6.76-4.47 0-6.84-2.82-6.84-8.9s2.41-8.83 6.84-8.83a6.5 6.5 0 012.29.4 1.34 1.34 0 00.94-2.5 8.47 8.47 0 00-3.43-.71c-6.26 0-9.75 3.69-9.75 11.64s3.69 11.71 10 11.71c5.52 0 9.52-3.16 9.52-9.57V13.08a1.55 1.55 0 00-1.67-1.56zM150.28 36.76c-1.31 0-1.94-.81-1.94-2.76V13.08a1.57 1.57 0 00-1.55-1.56 1.6 1.6 0 00-1.56 1.56V34c0 3.73 1.8 5.67 5.05 5.67a1.44 1.44 0 001.45-1.45 1.46 1.46 0 00-1.45-1.46zM164 16.57c-4.08 0-6.7 1.71-8.06 3.83a1.47 1.47 0 00-.24.82 1.42 1.42 0 001.42 1.41 1.56 1.56 0 001.25-.67 6.72 6.72 0 015.63-2.49c2.53 0 4.36 1 5.21 2.84a5.67 5.67 0 01.51 2.5v6.09a6.2 6.2 0 01-.85 3.27 6.66 6.66 0 01-5.79 2.94c-3.78 0-5.54-1.6-5.54-4.14 0-2.82 2.19-4.12 5.34-4.12H166a1.34 1.34 0 001.34-1.35 1.34 1.34 0 00-1.34-1.36h-3.16c-5.23 0-8.5 2.56-8.5 6.83 0 4.47 3.27 7 8.41 7 2.92 0 5.73-1.21 6.93-3.5v1.69a1.56 1.56 0 001.2 1.54 1.53 1.53 0 001.82-1.49v-13.4c.01-4.94-3.1-8.24-8.7-8.24zM130.34 39.92c4.08 0 6.7-1.7 8.06-3.83a1.43 1.43 0 00.24-.81 1.42 1.42 0 00-1.42-1.42 1.56 1.56 0 00-1.25.67 6.69 6.69 0 01-5.63 2.47c-2.53 0-4.36-1-5.21-2.83a5.75 5.75 0 01-.51-2.51V25.6a6.2 6.2 0 01.85-3.27 6.64 6.64 0 015.79-2.95c3.78 0 5.54 1.6 5.54 4.14 0 2.82-2.19 4.13-5.34 4.13h-3.16A1.34 1.34 0 00127 29a1.34 1.34 0 001.34 1.32h3.16c5.23 0 8.5-2.56 8.5-6.83 0-4.46-3.27-6.95-8.41-6.95-2.92 0-6.58.77-8.65 4a8.4 8.4 0 00-1.3 4.11v7c-.04 4.97 3.07 8.27 8.7 8.27zM188.24 16.57a8.55 8.55 0 00-3.44.71 1.35 1.35 0 00.51 2.58 1.14 1.14 0 00.44-.08 6.51 6.51 0 012.3-.4c4.42 0 6.85 2.87 6.85 8.83s-2.38 8.9-6.85 8.9c-3.74 0-6.41-2.14-6.41-6.76v-17.2a1.61 1.61 0 00-1.5-1.63 1.55 1.55 0 00-1.6 1.56v17.27c0 6.41 4 9.57 9.51 9.57 6.27 0 10-3.74 10-11.71s-3.55-11.64-9.81-11.64zM205.44 22.49c0-2.23 2.14-2.92 4.32-2.92a6.85 6.85 0 015.24 2.05 1.42 1.42 0 002.44-1 1.37 1.37 0 00-.35-.91c-1.51-2-4.07-3.11-7.37-3.11-4.12 0-7.43 1.84-7.43 5.87 0 8 12.77 6 12.77 11 0 2.52-2.38 3.45-5.14 3.45a8.23 8.23 0 01-6.18-2.38 1.52 1.52 0 00-1.07-.49 1.41 1.41 0 00-1.4 1.42 1.36 1.36 0 00.33.9 10.88 10.88 0 008.4 3.5c4.59 0 8.24-2 8.24-6.41-.04-7.77-12.8-5.87-12.8-10.97z"/><path class="cls-2" d="M20.83 40.1a13.36 13.36 0 01-4.91-13.29 13.16 13.16 0 012.67-5.61 1.36 1.36 0 000-1.77l-.06-.06a1.34 1.34 0 00-2 .07 16.14 16.14 0 002.71 22.84 1.29 1.29 0 001.95-.4l.09-.16a1.29 1.29 0 00-.45-1.62zM40.88 20.25a2.44 2.44 0 01-3.42.29 2.36 2.36 0 01-.84-1.54 1.15 1.15 0 00-.53-.79 13.35 13.35 0 00-12.56-.85 1.37 1.37 0 01-1.69-.36l-.07-.11a1.37 1.37 0 01.53-2 16.46 16.46 0 0115.55 1.29 1.22 1.22 0 00.86.16 2.41 2.41 0 012.17 4z"/><path class="cls-2" d="M33.64 34.06a6.3 6.3 0 01-6.31 2.13 7 7 0 116.52-11.77 1.36 1.36 0 001.92 0 1.37 1.37 0 000-1.94 9.71 9.71 0 10.23 13.6 1.52 1.52 0 00-.09-2.14 1.53 1.53 0 00-2.27.12z"/><circle class="cls-2" cx="28.69" cy="29.39" r="2.43"/><path class="cls-2" d="M40.33 39.07a1.32 1.32 0 00-1.85 0 13.21 13.21 0 01-8.71 3.88 1 1 0 01-.8-.31 2.42 2.42 0 00-4.21 1.24 2.42 2.42 0 002 2.77 2.38 2.38 0 002-.63 1.12 1.12 0 01.72-.33 15.94 15.94 0 0010.89-4.71 1.31 1.31 0 00-.04-1.91zM2.77 28.34A26.42 26.42 0 0117.28 6.12 1.37 1.37 0 0018 4.41a1.35 1.35 0 00-1.86-.74A29.26 29.26 0 000 28.05a30.61 30.61 0 001.57 11.57 1.39 1.39 0 002.09.69l.18-.13a1.34 1.34 0 00.49-1.58 26.46 26.46 0 01-1.56-10.26zM49.46 48.21a1.35 1.35 0 00-1.91 0 26.27 26.27 0 01-23.31 7.2 1.36 1.36 0 00-.56 2.66 27.91 27.91 0 005.36.51 28.84 28.84 0 0020.47-8.48 1.33 1.33 0 00-.05-1.89zM23.3 3.93a25.21 25.21 0 014.53-.62 27 27 0 013.72.1.88.88 0 01.62.41 2.44 2.44 0 001.35 1 2.39 2.39 0 001.91-.3 1 1 0 01.85-.16 25.9 25.9 0 016.57 2.93 1.34 1.34 0 001.87-.38 1.4 1.4 0 00.28-.82A1.35 1.35 0 0044.34 5a28.71 28.71 0 00-7.55-3.32 1 1 0 01-.57-.47A2.44 2.44 0 0034.77.08 2.37 2.37 0 0032.7.5a1 1 0 01-.7.22 29 29 0 00-4.19-.13 27.84 27.84 0 00-5.18.7 1.35 1.35 0 00-.94 1.81 1.37 1.37 0 001.61.83zM18 53.43a26.43 26.43 0 01-8.43-6.19 3.56 3.56 0 01-.77-2 2.25 2.25 0 00-.36-1A2.43 2.43 0 104.42 47a2.36 2.36 0 001.37 1 3.33 3.33 0 011.67 1 28.21 28.21 0 009.47 7 1.35 1.35 0 001.83-.85v-.07a1.37 1.37 0 00-.76-1.65z"/><path class="cls-2" d="M33.16 50.24a1.37 1.37 0 00-1.55-1 20.16 20.16 0 01-2.6.17A19.87 19.87 0 019.23 31 1.36 1.36 0 008 29.7h-.05a1.35 1.35 0 00-1.47 1.4A22.41 22.41 0 0029 52.11a22 22 0 003-.19 1.38 1.38 0 001.15-1.68zM35.89 9.81a1.42 1.42 0 00.22-.76A1.46 1.46 0 0035 7.6a25.16 25.16 0 00-10.06-.22 20.58 20.58 0 00-9.23 4 1 1 0 01-.76.19 2.33 2.33 0 00-1.74.5 2.36 2.36 0 00-.86 1.89 1.06 1.06 0 01-.23.71 22.37 22.37 0 00-5 9.43 1.35 1.35 0 001.12 1.6.9.9 0 00.23 0 1.36 1.36 0 001.31-1.07 19.75 19.75 0 014.19-8 1.06 1.06 0 01.83-.33 2.35 2.35 0 001.45-.53 2.33 2.33 0 00.84-1.61 1.09 1.09 0 01.35-.76 17.65 17.65 0 018.19-3.4 20.14 20.14 0 018.58.42 1.49 1.49 0 001.68-.61zM44.88 43.63a1.36 1.36 0 00-1.93 0 19.83 19.83 0 01-4.1 3.12 1 1 0 01-.83 0 2.43 2.43 0 100 4.65 2.45 2.45 0 001.62-1.6 1.14 1.14 0 01.51-.68 23 23 0 004.81-3.67 1.32 1.32 0 00-.08-1.82z"/></g></g></svg>
